<mxfile host="app.diagrams.net" modified="2020-09-09T14:53:04.381Z" agent="5.0 (Macintosh; Intel Mac OS X 10_15_6) AppleWebKit/605.1.15 (KHTML, like Gecko) Version/13.1.2 Safari/605.1.15" etag="zyIgQAI2yqaqi-KlLyba" version="13.6.9" type="github">
  <diagram id="prtHgNgQTEPvFCAcTncT" name="Page-1">
    <mxGraphModel dx="1426" dy="817" grid="1" gridSize="10" guides="1" tooltips="1" connect="1" arrows="1" fold="1" page="0" pageScale="1" pageWidth="827" pageHeight="1169" background="#F0F0F0" math="0" shadow="0">
      <root>
        <mxCell id="0" />
        <mxCell id="1" parent="0" />
        <mxCell id="yn-bkgCPsS3zDhoDYlJl-2" value="" style="rounded=0;whiteSpace=wrap;html=1;fillColor=#fff2cc;strokeColor=#d6b656;" parent="1" vertex="1">
          <mxGeometry x="110" y="275" width="120" height="60" as="geometry" />
        </mxCell>
        <mxCell id="C4NGRlxyy_g65lEFCXzj-3" value="FHIR&amp;nbsp;Server (PHI)" style="rounded=1;whiteSpace=wrap;html=1;fillColor=#e1d5e7;shadow=1;strokeColor=#9673a6;" parent="1" vertex="1">
          <mxGeometry x="40" y="180" width="90" height="390" as="geometry" />
        </mxCell>
        <mxCell id="C4NGRlxyy_g65lEFCXzj-6" value="" style="rounded=0;whiteSpace=wrap;html=1;shadow=1;strokeColor=#6c8ebf;fillColor=#CDDAED;" parent="1" vertex="1">
          <mxGeometry x="210" y="210" width="360" height="220" as="geometry" />
        </mxCell>
        <mxCell id="yn-bkgCPsS3zDhoDYlJl-5" style="edgeStyle=orthogonalEdgeStyle;rounded=0;orthogonalLoop=1;jettySize=auto;html=1;exitX=1;exitY=0.5;exitDx=0;exitDy=0;entryX=0;entryY=0.5;entryDx=0;entryDy=0;startArrow=none;startFill=0;endArrow=block;endFill=1;strokeColor=#5C5C5C;" parent="1" source="C4NGRlxyy_g65lEFCXzj-9" target="C4NGRlxyy_g65lEFCXzj-11" edge="1">
          <mxGeometry relative="1" as="geometry" />
        </mxCell>
        <mxCell id="C4NGRlxyy_g65lEFCXzj-9" value="FHIR Inbound" style="rounded=1;whiteSpace=wrap;html=1;fillColor=#d5e8d4;strokeColor=#82b366;shadow=1;" parent="1" vertex="1">
          <mxGeometry x="235" y="290" width="120" height="60" as="geometry" />
        </mxCell>
        <mxCell id="C4NGRlxyy_g65lEFCXzj-10" value="FHIR Inbound Service" style="text;html=1;strokeColor=none;fillColor=none;align=center;verticalAlign=middle;whiteSpace=wrap;rounded=0;shadow=1;" parent="1" vertex="1">
          <mxGeometry x="205" y="220" width="155" height="20" as="geometry" />
        </mxCell>
        <mxCell id="C4NGRlxyy_g65lEFCXzj-11" value="FHIR Processor" style="rounded=1;whiteSpace=wrap;html=1;fillColor=#d5e8d4;strokeColor=#82b366;shadow=1;" parent="1" vertex="1">
          <mxGeometry x="420" y="290" width="120" height="60" as="geometry" />
        </mxCell>
        <mxCell id="C4NGRlxyy_g65lEFCXzj-13" value="&lt;span style=&quot;background-color: rgb(255 , 244 , 195)&quot;&gt;REST&lt;/span&gt;" style="edgeStyle=orthogonalEdgeStyle;rounded=0;orthogonalLoop=1;jettySize=auto;html=1;startArrow=block;startFill=1;endArrow=block;endFill=1;strokeColor=#5C5C5C;entryX=0;entryY=0.5;entryDx=0;entryDy=0;" parent="1" target="C4NGRlxyy_g65lEFCXzj-9" edge="1">
          <mxGeometry relative="1" as="geometry">
            <mxPoint x="210" y="375" as="targetPoint" />
            <mxPoint x="129" y="320" as="sourcePoint" />
          </mxGeometry>
        </mxCell>
        <mxCell id="C4NGRlxyy_g65lEFCXzj-17" value="" style="rounded=0;whiteSpace=wrap;html=1;shadow=1;strokeColor=#b85450;fillColor=#f8cecc;" parent="1" vertex="1">
          <mxGeometry x="210" y="447.5" width="360" height="122.5" as="geometry" />
        </mxCell>
        <mxCell id="C4NGRlxyy_g65lEFCXzj-16" value="JSON Parser" style="rounded=1;whiteSpace=wrap;html=1;fillColor=#d5e8d4;strokeColor=#82b366;shadow=1;" parent="1" vertex="1">
          <mxGeometry x="235" y="478.75" width="120" height="60" as="geometry" />
        </mxCell>
        <mxCell id="C4NGRlxyy_g65lEFCXzj-18" value="Profile" style="rounded=1;whiteSpace=wrap;html=1;fillColor=#d5e8d4;strokeColor=#82b366;shadow=1;" parent="1" vertex="1">
          <mxGeometry x="420" y="478.75" width="120" height="60" as="geometry" />
        </mxCell>
        <mxCell id="C4NGRlxyy_g65lEFCXzj-19" value="" style="endArrow=none;dashed=1;html=1;strokeColor=#000000;exitX=0.5;exitY=0;exitDx=0;exitDy=0;entryX=0.5;entryY=1;entryDx=0;entryDy=0;edgeStyle=orthogonalEdgeStyle;" parent="1" source="C4NGRlxyy_g65lEFCXzj-17" target="C4NGRlxyy_g65lEFCXzj-11" edge="1">
          <mxGeometry width="50" height="50" relative="1" as="geometry">
            <mxPoint x="410" y="430" as="sourcePoint" />
            <mxPoint x="460" y="380" as="targetPoint" />
          </mxGeometry>
        </mxCell>
        <mxCell id="C4NGRlxyy_g65lEFCXzj-24" style="edgeStyle=orthogonalEdgeStyle;rounded=0;orthogonalLoop=1;jettySize=auto;html=1;exitX=0.5;exitY=1;exitDx=0;exitDy=0;strokeColor=#000000;" parent="1" source="C4NGRlxyy_g65lEFCXzj-18" target="C4NGRlxyy_g65lEFCXzj-18" edge="1">
          <mxGeometry relative="1" as="geometry" />
        </mxCell>
        <mxCell id="6wllx-ECjrWB_K7baaXf-1" value="&lt;h2&gt;&lt;font color=&quot;#ffffff&quot;&gt;1&lt;/font&gt;&lt;/h2&gt;" style="ellipse;whiteSpace=wrap;html=1;aspect=fixed;strokeColor=#82b366;fillColor=#C1E0BC;" parent="1" vertex="1">
          <mxGeometry x="165" y="280" width="30" height="30" as="geometry" />
        </mxCell>
        <mxCell id="yn-bkgCPsS3zDhoDYlJl-6" value="&lt;h2&gt;&lt;font color=&quot;#ffffff&quot;&gt;2&lt;/font&gt;&lt;/h2&gt;" style="ellipse;whiteSpace=wrap;html=1;aspect=fixed;strokeColor=#82b366;fillColor=#C1E0BC;" parent="1" vertex="1">
          <mxGeometry x="420" y="380" width="30" height="30" as="geometry" />
        </mxCell>
        <mxCell id="yn-bkgCPsS3zDhoDYlJl-10" value="" style="shape=cross;whiteSpace=wrap;html=1;rounded=0;fillColor=#f5f5f5;strokeColor=#666666;fontColor=#333333;" parent="1" vertex="1">
          <mxGeometry x="375" y="494.38" width="30" height="28.75" as="geometry" />
        </mxCell>
      </root>
    </mxGraphModel>
  </diagram>
</mxfile>
